<svg width="40" height="34" viewBox="0 0 40 34" fill="none" xmlns="http://www.w3.org/2000/svg">
<rect width="40" height="34" fill="white"/>
<g clip-path="url(#clip0_8_5)">
<rect width="390" height="844" transform="translate(-37 -341)" fill="#080808"/>
<rect width="390" height="580" transform="translate(-37 -39)" fill="#1C1C1E"/>
<rect x="-20" y="-23" width="193" height="80" rx="15" fill="#2C2C2E"/>
<rect x="-10" y="-13" width="60" height="60" rx="11" fill="white"/>
<path fill-rule="evenodd" clip-rule="evenodd" d="M13.5049 0.636429C14.2685 0.636429 14.8885 1.2444 14.8885 1.99501C14.8885 2.74383 14.2703 3.3518 13.5049 3.3518L10.5431 3.35358C8.08488 3.35715 6.08488 5.32013 6.08488 7.73241V11.1128C6.08488 11.8616 5.46307 12.4714 4.69943 12.4714C3.93579 12.4714 3.31579 11.8616 3.31579 11.1128V7.73241C3.31579 3.82427 6.55761 0.641778 10.5412 0.638212L13.5031 0.636429H13.5049ZM26.5464 0.63685H29.4428C33.4373 0.63685 36.6846 3.82113 36.6846 7.73818V11.1132C36.6846 11.8621 36.0664 12.4718 35.301 12.4718C34.5373 12.4718 33.9173 11.8621 33.9173 11.1132V7.73818C33.9173 5.31877 31.9101 3.35044 29.4428 3.35044H26.5464C25.7828 3.35044 25.1628 2.74425 25.1628 1.99543C25.1628 1.24482 25.7828 0.63685 26.5464 0.63685ZM25.0226 7.44128H14.979C12.6808 7.46445 10.8336 9.3062 10.8536 11.5616V13.8259C10.859 14.0897 11.0754 14.3055 11.3445 14.3144H28.6536C28.9245 14.3073 29.1408 14.0915 29.1499 13.8259V11.5616C29.1517 10.4722 28.7226 9.42565 27.9481 8.64652C27.179 7.87452 26.1226 7.44128 25.0226 7.44128ZM1.38545 17.075H38.6164C39.38 17.075 40 17.683 40 18.4336C40 19.1824 39.38 19.7886 38.6164 19.7886H36.6854V26.2606C36.6854 30.1794 33.4364 33.3637 29.4436 33.3637H26.5473C25.7818 33.3637 25.1618 32.7557 25.1618 32.0051C25.1618 31.2563 25.7818 30.6483 26.5473 30.6483H29.4436C31.9109 30.6483 33.9182 28.6818 33.9182 26.2606V19.7886H29.1491V21.5911C29.1673 23.8465 27.3218 25.6901 25.0218 25.7115H14.9782C12.68 25.6901 10.8345 23.8465 10.8527 21.5911V19.7886H6.08363V26.2677C6.08363 28.68 8.08545 30.643 10.5454 30.6465L13.5054 30.6483C14.2691 30.6483 14.8891 31.2563 14.8891 32.0051C14.8873 32.7557 14.2691 33.3637 13.5036 33.3637L10.5418 33.3619C6.55817 33.3584 3.31454 30.1759 3.31454 26.2677V19.7886H1.38545C0.621809 19.7886 -9.27484e-06 19.1824 -9.27484e-06 18.4336C-9.27484e-06 17.683 0.621809 17.075 1.38545 17.075Z" fill="url(#paint0_linear_8_5)"/>
</g>
<defs>
<linearGradient id="paint0_linear_8_5" x1="20" y1="0.636353" x2="20" y2="33.3636" gradientUnits="userSpaceOnUse">
<stop stop-color="#F57FA4"/>
<stop offset="1" stop-color="#F45687"/>
</linearGradient>
<clipPath id="clip0_8_5">
<rect width="390" height="844" fill="white" transform="translate(-37 -341)"/>
</clipPath>
</defs>
</svg>
